<svg width="12592" height="3191" viewBox="0 0 12592 3191" fill="none" xmlns="http://www.w3.org/2000/svg">
<path d="M3578.62 2275.44L4114.12 2519.04C4119.7 2528.56 4115.81 2535.6 4113.75 2542.71C4081.75 2651.68 4025.15 2747.08 3952.6 2833.57C3863.02 2940.21 3751.56 3016.36 3623.85 3070C3542.39 3104.2 3457.61 3126.89 3371.03 3143.82C3197.62 3177.85 3022.57 3192.07 2846.02 3190.94C2743.74 3190.27 2641.75 3185.7 2539.57 3180.11C2474.37 3176.54 2409.13 3175.41 2343.84 3172.29C2291.89 3169.83 2239.86 3167.37 2188.08 3162.44C2116.47 3155.56 2044.36 3155.56 1972.74 3162.44C1920.05 3167.56 1866.92 3169.6 1814.1 3172.14C1746.05 3175.41 1677.88 3176.81 1609.84 3180.75C1476.52 3188.48 1343.16 3192.91 1209.65 3189.26C1067.67 3185.37 926.278 3169.46 786.987 3141.7C694.797 3123.35 605.239 3097.41 519.054 3059.42C340.038 2980.68 205.222 2854.43 110.792 2684.02C73.8762 2617.24 50.3979 2545.36 33.1706 2471.45C11.1668 2376.41 0.143102 2279.17 0.315715 2181.62C0.315715 1961.03 -0.644091 1740.54 0.783312 1520C1.52162 1402.91 19.6349 1287.98 61.2511 1177.99C100.234 1074.99 156.37 982.424 236.428 905.631C353.327 793.528 490.53 719.417 649.169 685.338C754.811 662.405 863.385 656.087 970.974 666.613C1190.87 688.266 1396.46 753.889 1586.23 867.886C1656.3 910.011 1720.85 959.271 1777.83 1018.18C1782.97 1023.47 1788.53 1028.36 1796.04 1035.4C1797.54 1029.79 1799.16 1026.59 1799.14 1023.39C1798.11 914.612 1783.81 808.538 1738.38 708.098C1707.9 639.508 1660.47 579.796 1600.56 534.58C1522.47 475.232 1434.31 441.867 1339.17 423.856C1254.31 407.69 1168.62 400.407 1082.36 399.029C1073.85 398.881 1065.33 398.512 1056.84 397.995C1054.41 397.372 1052.05 396.472 1049.83 395.313C1049.07 389.341 1048.78 383.319 1048.96 377.302C1053.51 331.109 1058.24 284.966 1063.16 238.872C1069.81 176.767 1076.54 114.68 1083.37 52.6083C1085.09 36.7131 1087.21 20.8426 1089.3 3.66799C1096.51 2.60996 1102.84 0.789151 1108.99 0.862968C1196.09 1.74876 1283.08 4.20931 1369.86 12.6244C1450.24 20.3997 1529.9 31.1769 1608.41 49.1881C1689.62 67.6914 1770.07 89.0982 1846.37 123.57C1929.11 160.946 2003.73 210.157 2067.86 274.697C2071.85 278.708 2076.08 282.448 2081.32 287.32C2085.26 284.687 2089.54 282.792 2092.57 279.668C2196.2 173.864 2323.59 110.677 2464.78 71.899C2558.77 45.926 2654.67 27.4387 2751.59 16.6105C2825.93 8.39224 2900.5 2.92983 2975.32 1.84719C2998.99 1.4781 3022.64 0.444675 3046.3 0.0263816C3055.62 -0.145857 3064.97 0.567702 3075.83 0.936784C3083.51 34.3264 3084 67.3716 3088.13 100.023C3092.27 132.674 3095.52 165.818 3099.13 198.74C3102.75 231.662 3106.94 264.535 3109.52 297.531C3112.1 330.527 3119.54 362.686 3117.39 397.528C3107.77 398.192 3099.45 399.152 3091.11 399.275C3027.68 399.762 2964.34 404.101 2901.44 412.266C2830.98 421.789 2761.55 435.42 2694.96 461.477C2633.43 485.615 2579.14 521.49 2529.65 564.82C2492.88 596.807 2464.43 635.881 2442.23 679.236C2410.27 741.679 2388.71 808.914 2378.39 878.294C2370.03 933.632 2368.82 989.437 2365.15 1045.14C2360.23 1121.79 2362.69 1198.36 2362.69 1275.01C2362.94 1445.38 2362.94 1615.75 2362.69 1786.14V2635.47C2374.85 2642.14 2386.71 2644.18 2398.89 2645.14C2496.99 2652.84 2595.06 2660.79 2693.18 2668.1C2725.18 2670.56 2757.49 2670.56 2789.56 2672.85C2897.67 2680.52 3005.2 2672.85 3112.45 2660.54C3186.06 2652.13 3257.82 2635.94 3325.67 2604.64C3399.36 2570.58 3462.28 2523.96 3507.59 2455.46C3537.72 2409.91 3557.7 2360.16 3570.57 2307.36C3573.01 2298.13 3575.27 2288.95 3578.62 2275.44ZM1798.47 2639.36V1469.69C1784.08 1461.84 1769.39 1453.47 1754.4 1445.67C1686.3 1410.31 1615.45 1380.93 1544.52 1352.17C1388.83 1288.76 1229.51 1238.84 1060.16 1227.64C996.545 1223.44 933.468 1224.25 870.662 1236.28C817.209 1246.54 766.782 1264.5 720.293 1293.39C683.803 1315.73 653.229 1346.53 631.154 1383.17C609.398 1418.7 593.245 1457.37 583.262 1497.81C572.089 1544.09 568.274 1591.31 568.151 1638.6C567.856 1758.79 567.856 1879 568.151 1999.22C568.348 2047.45 569.948 2095.7 571.892 2143.93C574.379 2199.75 582.45 2255.18 595.986 2309.4C630.096 2449.18 712.122 2548.98 844.723 2606.85C899.493 2630.48 957.106 2646.87 1016.11 2655.62C1116.47 2671.12 1217.6 2675.9 1318.82 2676.44C1358.49 2676.66 1398.19 2672.84 1437.86 2670.8C1448.24 2670.26 1458.65 2669.72 1469.01 2668.83C1533 2663.47 1597.24 2657.84 1661.37 2652.67C1697.2 2649.79 1733.13 2647.89 1768.97 2645.02C1778.37 2644.28 1787.45 2641.55 1798.47 2639.36Z" fill="#1E1E1E"/>
<path d="M3278.53 1706.24L3611.02 804.121H3703.81L4036.31 1706.24H3940.94L3657.42 922.685L3372.61 1706.24H3278.53ZM3430.6 1462.67L3457.66 1387.92H3855.88L3882.95 1462.67H3430.6ZM4170.72 1706.24V1056.71H4253.2L4258.35 1172.7C4278.97 1131.46 4308.61 1099.24 4347.28 1076.04C4386.8 1052.85 4430.62 1041.25 4478.73 1041.25C4528.56 1041.25 4571.95 1051.13 4608.89 1070.89C4645.84 1090.65 4674.62 1120.72 4695.24 1161.1C4715.86 1200.62 4726.17 1251.31 4726.17 1313.17V1706.24H4635.96V1323.48C4635.96 1254.75 4620.92 1203.63 4590.85 1170.12C4560.78 1136.62 4517.82 1119.86 4461.98 1119.86C4424.17 1119.86 4389.81 1129.31 4358.88 1148.21C4328.81 1166.26 4304.75 1192.89 4286.71 1228.12C4269.52 1263.34 4260.93 1306.73 4260.93 1358.28V1706.24H4170.72ZM5180.42 1721.7C5117.7 1721.7 5062.71 1707.1 5015.46 1677.89C4969.06 1647.82 4932.98 1607.01 4907.2 1555.46C4881.43 1503.91 4868.54 1445.48 4868.54 1380.19C4868.54 1314.89 4881.43 1256.9 4907.2 1206.21C4932.98 1154.66 4969.49 1114.28 5016.75 1085.07C5064 1055.85 5118.99 1041.25 5181.71 1041.25C5236.69 1041.25 5284.81 1053.28 5326.05 1077.33C5368.14 1100.53 5400.36 1133.61 5422.7 1176.57V778.346H5512.91V1706.24H5430.43L5422.7 1588.96C5408.95 1611.3 5390.91 1632.78 5368.57 1653.4C5347.1 1674.02 5320.46 1690.77 5288.67 1703.66C5257.74 1715.69 5221.66 1721.7 5180.42 1721.7ZM5188.15 1643.09C5233.69 1643.09 5273.21 1632.35 5306.71 1610.87C5341.08 1589.39 5367.71 1558.89 5386.62 1519.37C5406.38 1479.85 5416.26 1433.89 5416.26 1381.48C5416.26 1329.07 5406.38 1283.1 5386.62 1243.58C5367.71 1204.06 5341.08 1173.56 5306.71 1152.08C5273.21 1130.6 5233.69 1119.86 5188.15 1119.86C5143.47 1119.86 5103.95 1130.6 5069.59 1152.08C5035.22 1173.56 5008.16 1204.06 4988.4 1243.58C4969.49 1282.24 4960.04 1328.21 4960.04 1381.48C4960.04 1434.74 4969.92 1481.14 4989.68 1520.66C5009.44 1559.32 5036.51 1589.39 5070.87 1610.87C5105.24 1632.35 5144.33 1643.09 5188.15 1643.09ZM5696.07 1706.24V1056.71H5778.54L5784.99 1181.72C5798.73 1151.65 5817.21 1126.31 5840.4 1105.69C5863.6 1085.07 5891.52 1069.17 5924.17 1058C5956.82 1046.83 5993.76 1041.25 6035 1041.25V1135.33H6000.21C5972.72 1135.33 5946.08 1139.19 5920.31 1146.93C5894.53 1153.8 5871.76 1165.83 5852 1183.01C5832.24 1200.19 5816.35 1223.39 5804.32 1252.6C5792.29 1281.81 5786.28 1318.33 5786.28 1362.15V1706.24H5696.07ZM6412.4 1721.7C6352.26 1721.7 6298.99 1707.53 6252.6 1679.18C6207.06 1650.82 6170.98 1611.3 6144.35 1560.61C6118.57 1509.06 6105.68 1448.92 6105.68 1380.19C6105.68 1311.45 6118.57 1251.74 6144.35 1201.05C6170.12 1150.36 6206.21 1111.27 6252.6 1083.78C6299.85 1055.43 6353.98 1041.25 6414.98 1041.25C6477.7 1041.25 6530.54 1055.43 6573.5 1083.78C6617.31 1112.13 6650.39 1149.07 6672.73 1194.61C6695.93 1240.14 6707.53 1289.98 6707.53 1344.1C6707.53 1352.69 6707.53 1361.72 6707.53 1371.17C6707.53 1379.76 6707.1 1390.07 6706.24 1402.1H6173.99V1326.06H6619.89C6618.17 1259.91 6597.55 1208.79 6558.03 1172.7C6519.37 1136.62 6470.4 1118.57 6411.12 1118.57C6372.45 1118.57 6336.37 1127.59 6302.86 1145.64C6270.21 1162.82 6243.58 1188.59 6222.96 1222.96C6203.2 1256.47 6193.32 1299 6193.32 1350.55V1384.05C6193.32 1442.48 6203.63 1491.02 6224.25 1529.68C6244.87 1568.34 6271.93 1597.13 6305.44 1616.03C6339.8 1634.93 6375.46 1644.38 6412.4 1644.38C6461.38 1644.38 6501.76 1633.64 6533.55 1612.16C6565.33 1589.82 6588.1 1559.32 6601.85 1520.66H6690.77C6679.6 1558.46 6661.56 1592.83 6636.64 1623.76C6612.59 1654.69 6581.66 1678.75 6543.86 1695.93C6506.05 1713.11 6462.24 1721.7 6412.4 1721.7ZM6286.11 1001.3L6277.09 936.861L6528.39 773.191L6541.28 851.804L6286.11 1001.3ZM7093.59 1721.7C7042.04 1721.7 6996.51 1713.11 6956.99 1695.93C6918.33 1678.75 6886.97 1654.26 6862.91 1622.47C6839.71 1589.82 6825.54 1551.16 6820.38 1506.48H6913.17C6918.33 1531.4 6928.21 1554.17 6942.81 1574.79C6958.28 1595.41 6978.9 1612.16 7004.67 1625.05C7030.45 1637.08 7060.95 1643.09 7096.17 1643.09C7128.82 1643.09 7155.45 1638.37 7176.07 1628.91C7197.55 1618.6 7213.45 1605.29 7223.76 1588.96C7234.93 1571.78 7240.51 1552.88 7240.51 1532.26C7240.51 1503.91 7233.64 1482 7219.89 1466.53C7207 1450.21 7188.1 1438.18 7163.19 1430.45C7138.27 1422.72 7108.2 1415.41 7072.97 1408.54C7043.76 1403.39 7015.84 1396.51 6989.21 1387.92C6962.57 1379.33 6938.52 1368.16 6917.04 1354.41C6896.42 1340.67 6880.09 1323.48 6868.06 1302.86C6856.04 1281.38 6850.02 1256.47 6850.02 1228.12C6850.02 1191.17 6859.04 1158.95 6877.09 1131.46C6895.99 1103.11 6922.62 1081.2 6956.99 1065.74C6991.35 1049.41 7031.73 1041.25 7078.13 1041.25C7144.28 1041.25 7198.41 1058 7240.51 1091.51C7282.61 1124.16 7307.1 1172.27 7313.97 1235.85H7223.76C7220.32 1200.62 7205.71 1172.7 7179.94 1152.08C7154.16 1131.46 7119.37 1121.15 7075.55 1121.15C7032.59 1121.15 6999.52 1130.17 6976.32 1148.21C6953.98 1165.4 6942.81 1189.02 6942.81 1219.1C6942.81 1238 6948.83 1254.32 6960.85 1268.07C6972.88 1281.81 6990.49 1293.84 7013.69 1304.15C7037.75 1313.6 7066.96 1321.76 7101.33 1328.64C7142.57 1336.37 7180.37 1346.68 7214.74 1359.57C7249.96 1371.6 7278.31 1390.5 7299.79 1416.27C7322.13 1441.19 7333.3 1476.84 7333.3 1523.24C7334.16 1561.9 7324.71 1596.27 7304.95 1626.34C7285.19 1656.41 7257.26 1680.03 7221.18 1697.22C7185.09 1713.54 7142.57 1721.7 7093.59 1721.7ZM8243.81 1721.7C8157.03 1721.7 8081.85 1702.37 8018.28 1663.71C7954.7 1624.19 7905.73 1569.63 7871.36 1500.04C7836.99 1429.59 7819.81 1347.97 7819.81 1255.18C7819.81 1162.39 7836.99 1081.2 7871.36 1011.61C7905.73 941.157 7954.7 886.6 8018.28 847.938C8082.71 808.416 8157.89 788.656 8243.81 788.656C8345.19 788.656 8427.24 812.712 8489.95 860.825C8553.53 908.079 8594.34 975.094 8612.39 1061.87H8513.15C8499.41 1003.45 8470.19 956.622 8425.52 921.396C8380.84 885.311 8320.27 867.269 8243.81 867.269C8177.65 867.269 8119.66 882.734 8069.83 913.664C8019.99 944.593 7981.33 989.27 7953.84 1047.69C7926.35 1105.26 7912.6 1174.42 7912.6 1255.18C7912.6 1335.94 7926.35 1405.53 7953.84 1463.96C7981.33 1521.52 8019.99 1565.77 8069.83 1596.7C8119.66 1627.63 8177.65 1643.09 8243.81 1643.09C8320.27 1643.09 8380.41 1625.48 8424.23 1590.25C8468.91 1555.03 8498.55 1508.63 8513.15 1451.07H8612.39C8593.48 1536.13 8552.67 1602.71 8489.95 1650.82C8428.1 1698.08 8346.05 1721.7 8243.81 1721.7ZM9052.99 1721.7C8993.71 1721.7 8940.01 1707.96 8891.9 1680.46C8844.65 1652.11 8807.27 1612.59 8779.78 1561.9C8752.29 1510.35 8738.54 1450.64 8738.54 1382.77C8738.54 1312.31 8752.29 1251.74 8779.78 1201.05C8808.13 1150.36 8846.37 1111.27 8894.48 1083.78C8942.59 1055.43 8996.29 1041.25 9055.57 1041.25C9117.43 1041.25 9171.99 1055.43 9219.24 1083.78C9266.5 1111.27 9303.87 1150.36 9331.36 1201.05C9358.85 1251.74 9372.6 1312.31 9372.6 1382.77C9372.6 1450.64 9358.43 1510.35 9330.07 1561.9C9302.58 1612.59 9264.78 1652.11 9216.66 1680.46C9169.41 1707.96 9114.85 1721.7 9052.99 1721.7ZM9054.28 1644.38C9094.66 1644.38 9131.61 1634.5 9165.11 1614.74C9199.48 1594.98 9226.97 1565.77 9247.59 1527.1C9269.07 1487.58 9279.81 1439.04 9279.81 1381.48C9279.81 1323.05 9269.5 1274.51 9248.88 1235.85C9228.26 1197.19 9200.77 1168.4 9166.4 1149.5C9132.9 1129.74 9095.95 1119.86 9055.57 1119.86C9016.91 1119.86 8980.39 1129.74 8946.03 1149.5C8911.66 1169.26 8883.74 1198.48 8862.26 1237.14C8841.64 1274.94 8831.33 1323.05 8831.33 1381.48C8831.33 1439.04 8841.64 1487.58 8862.26 1527.1C8882.88 1565.77 8909.94 1594.98 8943.45 1614.74C8977.82 1634.5 9014.76 1644.38 9054.28 1644.38ZM9527.05 1706.24V1056.71H9609.53L9615.97 1181.72C9629.72 1151.65 9648.19 1126.31 9671.39 1105.69C9694.59 1085.07 9722.51 1069.17 9755.16 1058C9787.8 1046.83 9824.75 1041.25 9865.99 1041.25V1135.33H9831.19C9803.7 1135.33 9777.06 1139.19 9751.29 1146.93C9725.52 1153.8 9702.75 1165.83 9682.99 1183.01C9663.23 1200.19 9647.33 1223.39 9635.3 1252.6C9623.27 1281.81 9617.26 1318.33 9617.26 1362.15V1706.24H9527.05ZM10248.5 1721.7C10185.8 1721.7 10130.8 1707.1 10083.6 1677.89C10037.2 1647.82 10001.1 1607.01 9975.33 1555.46C9949.55 1503.91 9936.67 1445.48 9936.67 1380.19C9936.67 1314.89 9949.55 1256.9 9975.33 1206.21C10001.1 1154.66 10037.6 1114.28 10084.9 1085.07C10132.1 1055.85 10187.1 1041.25 10249.8 1041.25C10304.8 1041.25 10352.9 1053.28 10394.2 1077.33C10436.3 1100.53 10468.5 1133.61 10490.8 1176.57V778.346H10581V1706.24H10498.6L10490.8 1588.96C10477.1 1611.3 10459 1632.78 10436.7 1653.4C10415.2 1674.02 10388.6 1690.77 10356.8 1703.66C10325.9 1715.69 10289.8 1721.7 10248.5 1721.7ZM10256.3 1643.09C10301.8 1643.09 10341.3 1632.35 10374.8 1610.87C10409.2 1589.39 10435.8 1558.89 10454.7 1519.37C10474.5 1479.85 10484.4 1433.89 10484.4 1381.48C10484.4 1329.07 10474.5 1283.1 10454.7 1243.58C10435.8 1204.06 10409.2 1173.56 10374.8 1152.08C10341.3 1130.6 10301.8 1119.86 10256.3 1119.86C10211.6 1119.86 10172.1 1130.6 10137.7 1152.08C10103.3 1173.56 10076.3 1204.06 10056.5 1243.58C10037.6 1282.24 10028.2 1328.21 10028.2 1381.48C10028.2 1434.74 10038 1481.14 10057.8 1520.66C10077.6 1559.32 10104.6 1589.39 10139 1610.87C10173.4 1632.35 10212.5 1643.09 10256.3 1643.09ZM11042.6 1721.7C10982.4 1721.7 10929.1 1707.53 10882.8 1679.18C10837.2 1650.82 10801.1 1611.3 10774.5 1560.61C10748.7 1509.06 10735.8 1448.92 10735.8 1380.19C10735.8 1311.45 10748.7 1251.74 10774.5 1201.05C10800.3 1150.36 10836.4 1111.27 10882.8 1083.78C10930 1055.43 10984.1 1041.25 11045.1 1041.25C11107.9 1041.25 11160.7 1055.43 11203.7 1083.78C11247.5 1112.13 11280.5 1149.07 11302.9 1194.61C11326.1 1240.14 11337.7 1289.98 11337.7 1344.1C11337.7 1352.69 11337.7 1361.72 11337.7 1371.17C11337.7 1379.76 11337.2 1390.07 11336.4 1402.1H10804.1V1326.06H11250C11248.3 1259.91 11227.7 1208.79 11188.2 1172.7C11149.5 1136.62 11100.6 1118.57 11041.3 1118.57C11002.6 1118.57 10966.5 1127.59 10933 1145.64C10900.4 1162.82 10873.7 1188.59 10853.1 1222.96C10833.4 1256.47 10823.5 1299 10823.5 1350.55V1384.05C10823.5 1442.48 10833.8 1491.02 10854.4 1529.68C10875 1568.34 10902.1 1597.13 10935.6 1616.03C10970 1634.93 11005.6 1644.38 11042.6 1644.38C11091.5 1644.38 11131.9 1633.64 11163.7 1612.16C11195.5 1589.82 11218.3 1559.32 11232 1520.66H11320.9C11309.8 1558.46 11291.7 1592.83 11266.8 1623.76C11242.7 1654.69 11211.8 1678.75 11174 1695.93C11136.2 1713.11 11092.4 1721.7 11042.6 1721.7ZM11485.3 1706.24V1056.71H11567.8L11574.3 1181.72C11588 1151.65 11606.5 1126.31 11629.7 1105.69C11652.9 1085.07 11680.8 1069.17 11713.4 1058C11746.1 1046.83 11783 1041.25 11824.3 1041.25V1135.33H11789.5C11762 1135.33 11735.3 1139.19 11709.6 1146.93C11683.8 1153.8 11661 1165.83 11641.3 1183.01C11621.5 1200.19 11605.6 1223.39 11593.6 1252.6C11581.6 1281.81 11575.5 1318.33 11575.5 1362.15V1706.24H11485.3ZM12209.4 1721.7C12150.1 1721.7 12096.4 1707.96 12048.3 1680.46C12001.1 1652.11 11963.7 1612.59 11936.2 1561.9C11908.7 1510.35 11894.9 1450.64 11894.9 1382.77C11894.9 1312.31 11908.7 1251.74 11936.2 1201.05C11964.5 1150.36 12002.8 1111.27 12050.9 1083.78C12099 1055.43 12152.7 1041.25 12212 1041.25C12273.8 1041.25 12328.4 1055.43 12375.6 1083.78C12422.9 1111.27 12460.3 1150.36 12487.8 1201.05C12515.3 1251.74 12529 1312.31 12529 1382.77C12529 1450.64 12514.8 1510.35 12486.5 1561.9C12459 1612.59 12421.2 1652.11 12373.1 1680.46C12325.8 1707.96 12271.3 1721.7 12209.4 1721.7ZM12210.7 1644.38C12251.1 1644.38 12288 1634.5 12321.5 1614.74C12355.9 1594.98 12383.4 1565.77 12404 1527.1C12425.5 1487.58 12436.2 1439.04 12436.2 1381.48C12436.2 1323.05 12425.9 1274.51 12405.3 1235.85C12384.7 1197.19 12357.2 1168.4 12322.8 1149.5C12289.3 1129.74 12252.4 1119.86 12212 1119.86C12173.3 1119.86 12136.8 1129.74 12102.4 1149.5C12068.1 1169.26 12040.1 1198.48 12018.7 1237.14C11998 1274.94 11987.7 1323.05 11987.7 1381.48C11987.7 1439.04 11998 1487.58 12018.7 1527.1C12039.3 1565.77 12066.4 1594.98 12099.9 1614.74C12134.2 1634.5 12171.2 1644.38 12210.7 1644.38Z" fill="#1E1E1E"/>
</svg>
