<svg width="910" height="910" viewBox="0 0 910 910" fill="none" xmlns="http://www.w3.org/2000/svg">
<rect width="910" height="910" rx="74.3879" fill="url(#paint0_linear_269_41)"/>
<path d="M686.984 558.844L768.353 595.868C769.202 597.315 768.611 598.385 768.297 599.466C763.435 616.029 754.834 630.528 743.81 643.674C730.198 659.882 713.262 671.456 693.857 679.609C681.479 684.807 668.596 688.255 655.441 690.828C629.092 696.001 602.492 698.162 575.665 697.99C560.123 697.889 544.626 697.194 529.1 696.345C519.194 695.802 509.28 695.63 499.359 695.155C491.465 694.781 483.559 694.407 475.691 693.659C464.809 692.612 453.852 692.612 442.97 693.659C434.964 694.437 426.89 694.748 418.865 695.133C408.525 695.63 398.166 695.843 387.827 696.442C367.569 697.616 347.305 698.289 327.018 697.736C305.444 697.143 283.96 694.725 262.794 690.507C248.786 687.717 235.178 683.775 222.082 678.001C194.88 666.034 174.395 646.845 160.046 620.943C154.437 610.793 150.869 599.869 148.252 588.635C144.908 574.191 143.233 559.411 143.259 544.584C143.259 511.057 143.114 477.545 143.33 444.025C143.443 426.228 146.195 408.759 152.519 392.042C158.442 376.388 166.972 362.319 179.137 350.647C196.9 333.608 217.748 322.344 241.853 317.164C257.905 313.679 274.403 312.719 290.751 314.318C324.164 317.609 355.405 327.583 384.24 344.91C394.887 351.312 404.696 358.799 413.353 367.752C414.134 368.556 414.98 369.301 416.12 370.37C416.348 369.518 416.595 369.031 416.591 368.545C416.434 352.012 414.262 335.89 407.358 320.624C402.728 310.199 395.521 301.123 386.417 294.251C374.551 285.23 361.156 280.159 346.699 277.422C333.805 274.965 320.784 273.858 307.677 273.648C306.383 273.626 305.089 273.57 303.799 273.491C303.429 273.396 303.071 273.26 302.733 273.084C302.618 272.176 302.574 271.261 302.602 270.346C303.293 263.325 304.012 256.312 304.76 249.306C305.769 239.867 306.793 230.43 307.83 220.996C308.092 218.58 308.413 216.168 308.731 213.557C309.827 213.397 310.788 213.12 311.723 213.131C324.957 213.266 338.176 213.64 351.362 214.919C363.576 216.101 375.68 217.739 387.61 220.476C399.95 223.288 412.175 226.542 423.767 231.781C436.34 237.462 447.678 244.942 457.424 254.751C458.029 255.361 458.673 255.929 459.469 256.67C460.067 256.27 460.718 255.982 461.178 255.507C476.925 239.426 496.281 229.822 517.735 223.928C532.017 219.98 546.59 217.17 561.316 215.525C572.613 214.276 583.944 213.445 595.312 213.281C598.91 213.225 602.503 213.068 606.097 213.004C607.514 212.978 608.936 213.086 610.585 213.142C611.751 218.217 611.826 223.24 612.454 228.202C613.083 233.165 613.576 238.203 614.126 243.206C614.676 248.21 615.311 253.207 615.704 258.222C616.097 263.237 617.226 268.125 616.901 273.42C615.439 273.521 614.175 273.667 612.907 273.686C603.269 273.76 593.644 274.419 584.086 275.66C573.38 277.108 562.83 279.179 552.711 283.14C543.362 286.809 535.113 292.261 527.593 298.847C522.006 303.709 517.683 309.647 514.31 316.237C509.454 325.728 506.177 335.947 504.609 346.492C503.338 354.903 503.155 363.384 502.597 371.851C501.849 383.501 502.223 395.139 502.223 406.788C502.261 432.683 502.261 458.578 502.223 484.475V613.565C504.071 614.578 505.873 614.888 507.724 615.034C522.63 616.205 537.532 617.413 552.442 618.524C557.303 618.898 562.213 618.898 567.086 619.245C583.514 620.412 599.852 619.245 616.149 617.375C627.334 616.096 638.239 613.636 648.549 608.879C659.745 603.703 669.307 596.616 676.191 586.204C680.769 579.282 683.805 571.72 685.761 563.695C686.131 562.292 686.475 560.897 686.984 558.844ZM416.49 614.155V436.377C414.303 435.184 412.07 433.913 409.793 432.727C399.445 427.353 388.679 422.888 377.902 418.516C354.245 408.879 330.035 401.291 304.304 399.589C294.637 398.95 285.052 399.073 275.509 400.902C267.387 402.461 259.724 405.191 252.66 409.582C247.116 412.978 242.47 417.658 239.116 423.228C235.81 428.628 233.355 434.505 231.838 440.652C230.141 447.687 229.561 454.863 229.542 462.051C229.497 480.319 229.497 498.589 229.542 516.861C229.572 524.191 229.815 531.525 230.111 538.855C230.489 547.339 231.715 555.765 233.772 564.005C238.955 585.251 251.419 600.419 271.567 609.215C279.89 612.806 288.644 615.297 297.61 616.627C312.86 618.984 328.225 619.709 343.606 619.791C349.634 619.825 355.666 619.245 361.695 618.935C363.273 618.853 364.854 618.77 366.429 618.636C376.152 617.82 385.912 616.964 395.657 616.179C401.102 615.741 406.562 615.453 412.007 615.016C413.435 614.903 414.815 614.488 416.49 614.155Z" fill="#E2E2E2" style="mix-blend-mode:color-dodge"/>
<defs>
<linearGradient id="paint0_linear_269_41" x1="0" y1="910" x2="910" y2="0" gradientUnits="userSpaceOnUse">
<stop/>
<stop offset="1" stop-color="#353535"/>
</linearGradient>
</defs>
</svg>
